<svg width="25" height="24" viewBox="0 0 25 24" fill="none" xmlns="http://www.w3.org/2000/svg">
<g clip-path="url(#clip0_64_839)">
<path d="M7.71971 18.1387L7.32753 18.3676C6.78671 18.6833 6.09046 18.5001 5.77494 17.9595L3.2744 13.6758C2.95888 13.1352 3.14181 12.4388 3.68249 12.1232L4.07467 11.8943C4.61549 11.5786 5.31174 11.7618 5.62726 12.3023L8.1278 16.5861C8.44346 17.1266 8.26053 17.823 7.71971 18.1387ZM3.9115 12.5155C3.58719 12.7048 3.47736 13.1227 3.66666 13.447L6.1672 17.7307C6.35651 18.0551 6.77439 18.1649 7.09869 17.9756L7.49087 17.7467C7.81518 17.5574 7.92501 17.1395 7.7357 16.8152L5.23552 12.5317C5.04621 12.2074 4.62833 12.0976 4.30403 12.2869L3.9115 12.5155Z" fill="#7261E1" stroke="#7261E1" stroke-width="0.7"/>
<path d="M10.555 18.492L10.1628 18.7209C9.62199 19.0366 8.92575 18.8534 8.61023 18.3128L4.35863 11.0293C4.04311 10.4888 4.22604 9.79231 4.76672 9.4767L5.1589 9.24777C5.69972 8.93208 6.39597 9.11533 6.71149 9.65586L10.9631 16.9394C11.2786 17.4799 11.0957 18.1764 10.555 18.492ZM4.99573 9.86903C4.67142 10.0583 4.56159 10.4762 4.75089 10.8005L9.00249 18.0841C9.1918 18.4084 9.60968 18.5182 9.93398 18.3289L10.3262 18.1C10.6505 17.9107 10.7603 17.4928 10.571 17.1685L6.31939 9.88494C6.13008 9.56062 5.71221 9.4508 5.38791 9.6401L4.99573 9.86903Z" fill="#7261E1" stroke="#7261E1" stroke-width="0.7"/>
<path d="M20.661 10.5845L20.2688 10.8135C19.728 11.1292 19.0318 10.9459 18.7162 10.4054L16.2156 6.1217C15.9 5.58117 16.083 4.88471 16.6237 4.56911L17.0158 4.34018C17.5567 4.02449 18.2529 4.20774 18.5684 4.74827L21.069 9.03203C21.3846 9.57247 21.2017 10.2689 20.661 10.5845L20.661 10.5845ZM16.8528 4.96135C16.5285 5.15066 16.4187 5.56854 16.608 5.89284L19.1085 10.1766C19.2978 10.5009 19.7157 10.6107 20.04 10.4214L20.4322 10.1925C20.7565 10.0032 20.8663 9.58531 20.677 9.26101L18.1767 4.97762C17.9874 4.65331 17.5695 4.54348 17.2452 4.73279L16.8528 4.96135Z" fill="#7261E1" stroke="#7261E1" stroke-width="0.7"/>
<path d="M19.5745 13.227L19.1823 13.456C18.6415 13.7717 17.9453 13.5884 17.6298 13.0479L13.3782 5.76434C13.0626 5.22381 13.2456 4.52735 13.7862 4.21175L14.1784 3.98282C14.7193 3.66713 15.4155 3.85038 15.731 4.39091L19.9826 11.6745C20.2981 12.215 20.1154 12.9114 19.5745 13.227ZM14.0153 4.60407C13.6909 4.79338 13.5811 5.21126 13.7704 5.53556L18.022 12.8191C18.2113 13.1434 18.6292 13.2532 18.9535 13.0639L19.3457 12.835C19.67 12.6457 19.7798 12.2278 19.5905 11.9035L15.3389 4.61998C15.1496 4.29567 14.7317 4.18584 14.4074 4.37515L14.0153 4.60407Z" fill="#7261E1" stroke="#7261E1" stroke-width="0.7"/>
<path d="M16.2728 10.2729L9.21428 14.3931C9.10589 14.4564 8.96704 14.4198 8.90386 14.3115L7.9882 12.7429C7.92493 12.6345 7.96154 12.4956 8.06979 12.4325L15.1287 8.31201C15.2371 8.24874 15.3759 8.28536 15.4391 8.3936L16.3547 9.96225C16.4179 10.0705 16.3814 10.2095 16.273 10.2728L16.2728 10.2729ZM9.18126 13.8866L15.848 9.99506L15.1612 8.81856L8.49451 12.7101L9.18126 13.8866Z" fill="#7261E1" stroke="#7261E1" stroke-width="0.7"/>
<path d="M20.9783 7.52605L20.194 7.98388C20.0856 8.04715 19.9468 8.01054 19.8836 7.90229L18.9679 6.33364C18.9047 6.22525 18.9413 6.0864 19.0495 6.02322L19.8338 5.56539C20.3747 5.2497 21.0709 5.43295 21.3864 5.97348C21.7021 6.51393 21.5192 7.21038 20.9784 7.52607L20.9783 7.52605ZM20.1613 7.4772L20.7494 7.13387C21.0737 6.94456 21.1836 6.52669 20.9943 6.20239C20.8049 5.87809 20.3871 5.76825 20.0628 5.95755L19.4746 6.30088L20.1613 7.4772Z" fill="#7261E1" stroke="#7261E1" stroke-width="0.7"/>
<path d="M5.29232 16.6824L4.50814 17.1401C3.96732 17.4558 3.27107 17.2726 2.95555 16.732C2.64003 16.1915 2.82296 15.4951 3.36364 15.1795L4.14796 14.7216C4.25635 14.6584 4.39521 14.695 4.45839 14.8032L5.37405 16.3719C5.43724 16.4801 5.4007 16.6191 5.29231 16.6824L5.29232 16.6824ZM3.59248 15.5715C3.26817 15.7608 3.15834 16.1787 3.34765 16.503C3.53695 16.8273 3.95483 16.9371 4.27913 16.7478L4.86729 16.4045L4.18054 15.228L3.59248 15.5715Z" fill="#7261E1" stroke="#7261E1" stroke-width="0.7"/>
</g>
<defs>
<clipPath id="clip0_64_839">
<rect width="24" height="24" fill="white" transform="translate(0.5)"/>
</clipPath>
</defs>
</svg>
