<svg width="25" height="25" viewBox="0 0 25 25" fill="none" xmlns="http://www.w3.org/2000/svg">
<path d="M12.4016 17.6788L10.3567 20.7873C10.1154 21.1519 9.73881 21.4054 9.31034 21.4919C9.20855 21.5123 9.10489 21.5226 9.0011 21.5227C8.69869 21.5234 8.40299 21.433 8.15253 21.2634C7.79479 21.0244 7.55387 20.6462 7.48824 20.2209C7.42034 19.7971 7.52936 19.3641 7.78958 19.0228L10.6023 15.3748H10.6025C10.7324 15.2068 10.9739 15.1758 11.1419 15.3057C11.31 15.4355 11.341 15.6771 11.211 15.8452L8.39828 19.4932C8.26635 19.6672 8.21211 19.8879 8.24854 20.1031C8.28484 20.3183 8.40859 20.5089 8.59033 20.6298C8.75948 20.743 8.96706 20.783 9.16623 20.7412C9.39337 20.6957 9.59305 20.5616 9.72111 20.3688L11.7583 17.2564C11.8764 17.0833 12.1116 17.0369 12.2866 17.1522C12.4617 17.2676 12.5119 17.5019 12.3995 17.6788L12.4016 17.6788ZM20.4807 3.9162C19.7645 3.40552 18.791 3.36708 17.7428 3.81067C16.6617 4.30459 15.7357 5.08394 15.0645 6.06468C14.093 7.42795 13.6379 8.98888 13.8491 10.2407C13.8958 10.5305 13.8701 10.8273 13.7742 11.1046C13.7058 11.3057 13.8132 11.524 14.0142 11.5924C14.2151 11.6607 14.4334 11.5533 14.5019 11.3524C14.6387 10.9546 14.675 10.5292 14.6075 10.114C14.4328 9.07336 14.8475 7.69284 15.6905 6.51022H15.6903C16.2774 5.64612 17.0884 4.95787 18.0367 4.51925C18.8315 4.18523 19.5381 4.19287 20.0296 4.54416C20.5212 4.89545 20.7612 5.55988 20.7036 6.41997L20.7034 6.4201C20.5987 7.45965 20.2131 8.45126 19.5879 9.28858C18.7528 10.4732 17.5739 11.316 16.5333 11.4889C16.1268 11.5588 15.7434 11.7261 15.4158 11.9765C15.3263 12.0449 15.241 12.1186 15.1604 12.1974C15.0207 12.3473 15.0234 12.5806 15.1665 12.7272C15.3096 12.874 15.5428 12.8824 15.6961 12.7465C15.7568 12.6893 15.8208 12.6361 15.8881 12.5871C16.116 12.4122 16.3828 12.2949 16.6657 12.2453C17.9194 12.036 19.2463 11.0933 20.2198 9.73405V9.73391C20.9275 8.78036 21.3622 7.65198 21.4774 6.46995C21.5465 5.3353 21.1932 4.42714 20.4809 3.91635L20.4807 3.9162ZM12.0999 10.8992C12.082 10.8677 12.082 10.829 12.0999 10.7975C12.4402 10.0282 12.3498 9.13642 11.8617 8.45122L8.43248 3.66665C8.37422 3.5812 8.28395 3.52294 8.18217 3.50486C8.08038 3.48691 7.97552 3.51075 7.89154 3.57102C7.80757 3.63115 7.75132 3.72276 7.73565 3.82495C7.72011 3.92714 7.74636 4.03133 7.8085 4.11396L11.2337 8.89854C11.5644 9.36218 11.6257 9.96582 11.395 10.4864C11.3303 10.6287 11.3051 10.786 11.3224 10.9415C11.3396 11.0969 11.3986 11.2448 11.493 11.3696L17.829 19.5642H17.8289C17.9553 19.7227 18.0111 19.926 17.9833 20.1267C17.9554 20.3275 17.8464 20.5079 17.6817 20.626C17.5171 20.744 17.3111 20.7893 17.1121 20.7512C16.9131 20.7131 16.7383 20.5949 16.6289 20.4243L10.8805 11.8035C10.7933 11.6727 10.6723 11.5679 10.5303 11.5003C10.3883 11.4328 10.2307 11.4048 10.0741 11.4194C9.50693 11.4718 8.95435 11.2206 8.62072 10.759L5.20127 5.98606C5.14287 5.90062 5.05274 5.84236 4.95082 5.82428C4.84903 5.80633 4.7443 5.83017 4.66033 5.8903C4.57622 5.95057 4.52011 6.04218 4.50443 6.14437C4.48876 6.24656 4.51501 6.35075 4.57716 6.43339L8.00052 11.2162C8.49365 11.8999 9.31167 12.2717 10.151 12.1935C10.1872 12.1879 10.2236 12.2017 10.247 12.23L15.9878 20.849C16.213 21.1907 16.5683 21.4252 16.9709 21.4979C17.0616 21.5145 17.1534 21.5228 17.2454 21.523C17.6226 21.5219 17.9857 21.3795 18.2629 21.1239C18.5401 20.8683 18.7116 20.5181 18.7432 20.1423C18.7749 19.7665 18.6646 19.3926 18.4339 19.094L12.0999 10.8992ZM9.64603 9.86632C9.78947 9.86659 9.92112 9.7869 9.98741 9.65967C10.0536 9.53244 10.0434 9.37882 9.9609 9.26151L6.8314 4.79168C6.70993 4.61771 6.47061 4.57512 6.29661 4.69659C6.12277 4.81807 6.08018 5.05738 6.20166 5.23138L9.33129 9.70121H9.33116C9.40281 9.80447 9.5204 9.86608 9.64602 9.86634L9.64603 9.86632Z" fill="#252727" stroke="#252727" stroke-width="0.4"/>
</svg>
