<svg width="40" height="40" viewBox="0 0 40 40" fill="none" xmlns="http://www.w3.org/2000/svg">
<path fill-rule="evenodd" clip-rule="evenodd" d="M27.6186 20.9021C27.7806 21.1001 27.9347 21.3014 28.0746 21.5085C28.0746 21.5085 28.1885 21.6867 28.2813 21.8356C29.8143 24.2902 30.1661 27.4342 29.1922 30.183C28.7208 31.5142 27.9521 32.7352 26.9597 33.7444L26.909 33.7961L26.8563 33.8475C26.4623 34.1781 25.9333 34.3075 25.4201 34.4292C24.3699 34.6783 23.2898 34.7859 22.2101 34.8535C20.0973 34.9859 17.967 34.9537 15.8809 34.6475C15.1637 34.5419 14.4381 34.4196 13.7718 34.1361C13.5952 34.0609 13.4251 33.9727 13.2758 33.8475L13.2231 33.7962C11.9115 32.4526 10.9577 30.7455 10.5801 28.8848C10.1271 26.6524 10.4959 24.2538 11.597 22.2665L11.6017 22.2582C11.3423 20.9192 10.5602 19.7321 10.0633 18.4797C9.12645 16.1169 8.91777 13.394 9.46577 11.0385C9.78474 9.66733 10.414 8.35035 11.4499 7.39744C12.041 6.85391 12.7524 6.4463 13.5174 6.19475C14.239 5.95726 15.0022 5.85591 15.7589 5.8481C16.4745 5.84185 17.1904 5.83627 17.9051 5.83627C20.1687 5.83761 22.415 5.8452 24.72 5.84833C25.8008 5.85234 26.9006 6.0836 27.8153 6.66307C28.4171 7.04432 28.9254 7.5689 29.3082 8.16844C29.9593 9.1881 30.2609 10.3903 30.3754 11.5441C30.5426 13.2276 30.3528 14.9448 29.9093 16.5727C29.6932 17.3651 29.4037 18.1479 29.0216 18.864C28.6557 19.5542 28.3448 20.2729 28.1678 21.0278C28.0317 20.8327 27.8886 20.643 27.739 20.4584C27.8348 20.1403 27.9495 19.8269 28.0792 19.5193C27.6506 18.8146 27.0252 18.2338 26.2774 17.9068C25.9317 17.7557 25.5661 17.6539 25.1939 17.5892C25.0605 17.7313 24.9098 17.859 24.7477 17.9738C24.5542 17.8689 24.3569 17.7704 24.1558 17.6784C24.5417 17.4617 24.8812 17.1818 25.0573 16.8028C25.0634 16.7898 25.0694 16.7769 25.0754 16.7639C25.6332 15.5519 26.0296 14.2271 25.9725 12.8945C25.9404 12.147 25.7546 11.372 25.1821 10.8662C24.7917 10.5215 24.2533 10.3791 23.727 10.3762C23.7165 10.3762 23.706 10.3764 23.6955 10.3764C21.3903 10.3972 19.095 10.3769 16.7983 10.3767C15.7756 10.3785 14.7135 10.7097 14.1523 11.6637C13.7706 12.3124 13.6657 13.0818 13.6715 13.8061C13.6798 14.8005 13.8979 15.7945 14.2171 16.7371C14.4151 17.3213 14.7173 17.8952 15.234 18.2255C15.3251 18.2838 15.4213 18.3342 15.5204 18.3771C17.9387 17.088 20.8711 16.888 23.453 17.8539C23.5155 17.8771 23.5778 17.9012 23.6398 17.9257C23.8726 18.0188 24.1023 18.1199 24.328 18.2316C24.8126 18.4697 25.2773 18.7483 25.7146 19.0653C26.4325 19.5856 27.0725 20.2066 27.6186 20.9021L27.6186 20.9021ZM14.686 18.5282C14.3869 19.4287 13.5385 20.1429 12.6313 20.4969C12.3374 20.6117 12.0287 20.6929 11.7151 20.7251C11.8954 21.1612 12.0488 21.6063 12.1463 22.0699C12.7322 22.0079 13.2847 21.7302 13.7938 21.4012C14.472 20.963 15.1182 20.4202 15.4773 19.7046C15.4959 19.6673 15.5133 19.6296 15.5293 19.5914C15.609 19.401 15.6579 19.1796 15.5664 19.0028L15.5622 19.005L15.4249 18.9541C15.1579 18.8532 14.9072 18.7088 14.686 18.5282L14.686 18.5282Z" fill="#262049" fill-opacity="0.3"/>
</svg>
