<svg width="40" height="40" viewBox="0 0 40 40" fill="none" xmlns="http://www.w3.org/2000/svg">
<path fill-rule="evenodd" clip-rule="evenodd" d="M24.5664 29.7636C24.4769 29.7636 24.3825 29.7562 24.2892 29.7509C24.4635 29.0714 24.5664 28.3636 24.5664 27.6303C24.5664 24.7766 23.1291 22.169 20.8657 20.6081C21.2887 20.2 21.7766 19.8692 22.3068 19.6192C22.6001 19.9505 23.0235 20.1636 23.4999 20.1636H25.6331C26.1133 20.1636 26.5394 19.9471 26.8331 19.6112C28.6834 20.4857 29.8999 22.3712 29.8999 24.4304C29.8999 27.3712 27.5073 29.7636 24.5664 29.7636V29.7636ZM10.7001 27.6303C10.7001 25.5712 11.9166 23.6857 13.7666 22.8111C14.0606 23.1471 14.4867 23.3636 14.9666 23.3636H16.1124C16.0653 23.7241 16.0334 24.0821 16.0334 24.4303C16.0334 27.2384 17.4398 29.8725 19.7405 31.4566C18.78 32.3872 17.4733 32.9638 16.0334 32.9638C13.0925 32.9638 10.7001 30.5714 10.7001 27.6305L10.7001 27.6303ZM14.4334 19.6303C14.4334 19.3359 14.6724 19.0971 14.9666 19.0971H17.1001C17.3945 19.0971 17.6334 19.3359 17.6334 19.6303V21.7636C17.6334 21.8319 17.618 21.8959 17.5945 21.9555C17.5849 21.9801 17.5693 22.0004 17.5566 22.0227C17.5378 22.0553 17.5186 22.0879 17.4941 22.1156C17.4787 22.1332 17.4606 22.1482 17.443 22.1636C17.4115 22.1908 17.3769 22.2143 17.3396 22.2335C17.322 22.2426 17.3055 22.2522 17.2872 22.2591C17.2287 22.2814 17.1662 22.2971 17.1001 22.2971H14.9666C14.6724 22.2971 14.4334 22.058 14.4334 21.7636L14.4334 19.6303ZM21.2722 28.6115C20.0001 27.6061 19.2331 26.0617 19.2331 24.4302C19.2331 24.1001 19.2677 23.7726 19.3287 23.4499C20.5874 24.4463 21.3664 25.9827 21.3664 27.6302C21.3664 27.9657 21.3318 28.2925 21.2722 28.6115H21.2722ZM22.9664 16.4303C22.9664 16.1359 23.2055 15.8971 23.4999 15.8971H25.6331C25.9275 15.8971 26.1664 16.1359 26.1664 16.4303V18.5636C26.1664 18.858 25.9275 19.0971 25.6331 19.0971H23.4999C23.2055 19.0971 22.9664 18.858 22.9664 18.5636V16.4303ZM27.2235 16.3355C27.1847 15.683 26.7568 15.139 26.1664 14.9285V4.69712C26.1664 4.40202 25.928 4.16364 25.6331 4.16364H23.4999C23.2048 4.16364 22.9664 4.40203 22.9664 4.69712V14.9285C22.376 15.139 21.9483 15.683 21.9095 16.3355C20.5506 16.7828 19.3153 17.5748 18.3334 18.6239C18.1506 18.4 17.9111 18.2277 17.6331 18.1285V4.69712C17.6331 4.40202 17.3947 4.16364 17.0999 4.16364H14.9664C14.6715 4.16364 14.4331 4.40203 14.4331 4.69712V18.1285C13.8427 18.339 13.4151 18.883 13.376 19.5355C9.89874 20.6761 7.5 23.9451 7.5 27.6303C7.5 32.3355 11.3281 36.1635 16.0331 36.1635C18.8059 36.1635 21.2669 34.828 22.8269 32.7726C23.4146 32.8969 23.9981 32.9634 24.5666 32.9634C29.2717 32.9634 33.1003 29.1353 33.1003 24.4303C33.1003 20.745 30.7014 17.476 27.2237 16.3354L27.2235 16.3355Z" fill="#262049" fill-opacity="0.3"/>
</svg>
