<svg width="67" height="12" viewBox="0 0 67 12" fill="none" xmlns="http://www.w3.org/2000/svg">
<rect opacity="0.35" x="42.8333" y="0.5" width="21" height="10.3333" rx="2.16667" stroke="#252727"/>
<path opacity="0.4" d="M65.3333 3.66667V7.66667C66.138 7.3279 66.6613 6.5398 66.6613 5.66667C66.6613 4.79354 66.138 4.00545 65.3333 3.66667Z" fill="#252727"/>
<rect x="44.3333" y="2" width="18" height="7.33333" rx="1.33333" fill="#252727"/>
<path fill-rule="evenodd" clip-rule="evenodd" d="M29.6671 2.28448C31.8918 2.28457 34.0315 3.13869 35.6438 4.67028C35.7652 4.78852 35.9593 4.78703 36.0789 4.66693L37.2395 3.4966C37.3 3.43569 37.3338 3.35318 37.3333 3.26733C37.3328 3.18148 37.2981 3.09937 37.2368 3.03917C33.0049 -1.01306 26.3286 -1.01306 22.0967 3.03917C22.0354 3.09933 22.0006 3.18141 22 3.26726C21.9994 3.35311 22.0331 3.43565 22.0936 3.4966L23.2546 4.66693C23.3741 4.78721 23.5683 4.78871 23.6897 4.67028C25.3022 3.13859 27.4421 2.28447 29.6671 2.28448ZM29.6671 6.09206C30.8894 6.09199 32.0681 6.54594 32.9742 7.36571C33.0968 7.48206 33.2898 7.47954 33.4093 7.36003L34.5685 6.1897C34.6296 6.12831 34.6635 6.04504 34.6626 5.9585C34.6617 5.87196 34.6261 5.78939 34.5639 5.72926C31.8047 3.16485 27.5318 3.16485 24.7726 5.72926C24.7103 5.78939 24.6747 5.87201 24.6739 5.95857C24.6731 6.04513 24.7071 6.1284 24.7683 6.1897L25.9272 7.36003C26.0467 7.47954 26.2397 7.48206 26.3623 7.36571C27.2677 6.54648 28.4455 6.09257 29.6671 6.09206ZM31.9893 8.6539C31.9911 8.74068 31.9569 8.82434 31.8949 8.88514L29.8896 10.9071C29.8308 10.9666 29.7507 11 29.6671 11C29.5834 11 29.5033 10.9666 29.4445 10.9071L27.4389 8.88514C27.3769 8.8243 27.3428 8.7406 27.3447 8.65383C27.3465 8.56705 27.3841 8.48487 27.4486 8.4267C28.7292 7.34443 30.6049 7.34443 31.8856 8.4267C31.95 8.48492 31.9875 8.56712 31.9893 8.6539Z" fill="#252727"/>
<path fill-rule="evenodd" clip-rule="evenodd" d="M16 1.00002H15C14.4477 1.00002 14 1.44773 14 2.00002V10.6667C14 11.219 14.4477 11.6667 15 11.6667H16C16.5523 11.6667 17 11.219 17 10.6667V2.00002C17 1.44773 16.5523 1.00002 16 1.00002ZM10.3333 3.33335H11.3333C11.8856 3.33335 12.3333 3.78106 12.3333 4.33335V10.6667C12.3333 11.219 11.8856 11.6667 11.3333 11.6667H10.3333C9.78105 11.6667 9.33333 11.219 9.33333 10.6667V4.33335C9.33333 3.78106 9.78105 3.33335 10.3333 3.33335ZM6.66667 5.66668H5.66667C5.11438 5.66668 4.66667 6.1144 4.66667 6.66668V10.6667C4.66667 11.219 5.11438 11.6667 5.66667 11.6667H6.66667C7.21895 11.6667 7.66667 11.219 7.66667 10.6667V6.66668C7.66667 6.1144 7.21895 5.66668 6.66667 5.66668ZM2 7.66668H1C0.447715 7.66668 0 8.1144 0 8.66668V10.6667C0 11.219 0.447715 11.6667 1 11.6667H2C2.55228 11.6667 3 11.219 3 10.6667V8.66668C3 8.1144 2.55228 7.66668 2 7.66668Z" fill="#252727"/>
</svg>
