<?xml version="1.0" standalone="no"?>
<!DOCTYPE svg PUBLIC "-//W3C//DTD SVG 20010904//EN"
 "http://www.w3.org/TR/2001/REC-SVG-20010904/DTD/svg10.dtd">
<svg version="1.0" xmlns="http://www.w3.org/2000/svg"
 width="406.000000pt" height="615.000000pt" viewBox="0 0 406.000000 615.000000"
 preserveAspectRatio="xMidYMid meet">

<g transform="translate(0.000000,615.000000) scale(0.100000,-0.100000)"
fill="#000000" stroke="none">
<path d="M2117 6020 c-47 -22 -79 -30 -105 -28 -36 4 -35 4 15 12 71 11 57 30
-15 21 -79 -10 -179 -42 -186 -60 -10 -28 4 -45 33 -39 24 6 25 5 7 -8 -15
-12 -17 -22 -12 -50 4 -20 13 -41 21 -48 8 -7 15 -20 15 -29 0 -21 19 -41 40
-41 9 0 35 14 58 31 24 17 45 29 48 26 3 -3 -14 -20 -38 -37 -23 -17 -46 -37
-49 -43 -4 -7 -3 -95 2 -197 5 -102 7 -200 4 -218 -5 -28 -3 -33 12 -32 35 4
51 0 74 -20 l24 -20 -33 16 c-69 33 -103 -3 -125 -132 -12 -70 4 -156 48 -252
31 -67 31 -107 4 -184 -12 -32 -20 -60 -18 -62 2 -2 27 1 55 7 35 7 67 7 105
0 l54 -10 -66 -2 c-36 0 -89 -8 -117 -16 -49 -15 -51 -17 -42 -41 6 -14 10
-36 10 -49 0 -22 3 -24 26 -15 14 6 60 9 102 9 l77 -1 -80 -13 c-44 -6 -87
-15 -97 -19 -27 -12 -38 -54 -47 -182 -6 -71 -16 -134 -25 -155 -9 -19 -14
-26 -12 -17 3 9 8 43 11 75 8 71 -6 131 -41 173 -32 37 -24 39 13 3 l28 -28 0
82 c0 45 -3 85 -7 89 -5 4 -8 24 -8 45 0 20 -12 74 -26 120 -39 129 -42 156
-22 222 42 139 12 239 -82 265 -29 8 -31 10 -10 11 14 0 36 -6 50 -14 14 -8
27 -14 30 -15 3 0 5 78 5 172 l0 173 43 87 c45 92 49 138 12 138 -32 0 -45 30
-50 114 l-5 81 -57 3 c-47 2 -58 0 -58 -13 0 -9 10 -15 28 -16 24 -2 25 -2 4
-6 -15 -3 -29 -17 -38 -38 -16 -40 -18 -59 -4 -50 13 8 13 2 -2 -29 -9 -21 -8
-32 8 -62 19 -35 20 -36 69 -30 57 6 96 -8 49 -17 -95 -20 -94 -20 -119 3
l-24 22 6 -74 c5 -68 2 -86 -30 -184 -32 -95 -59 -196 -82 -297 l-6 -29 33 23
33 24 -29 -35 c-51 -61 -66 -106 -65 -200 0 -67 5 -100 26 -155 15 -38 26 -90
26 -115 l0 -45 66 -3 c36 -1 89 -9 116 -17 l50 -14 -50 7 c-55 8 -166 8 -187
0 -9 -4 -12 -22 -10 -62 4 -55 4 -56 30 -49 35 10 121 7 150 -4 16 -6 -2 -9
-60 -8 -117 0 -138 -14 -138 -93 0 -36 -10 -87 -25 -133 -16 -47 -28 -108 -32
-166 l-6 -92 49 15 c35 11 65 13 104 8 l55 -7 -45 -10 c-109 -22 -188 -67
-170 -96 7 -12 14 -12 43 2 58 28 134 40 195 31 l57 -8 -82 -7 c-118 -9 -233
-73 -233 -129 0 -34 16 -30 58 15 23 24 56 52 74 61 24 13 17 3 -29 -40 -76
-70 -133 -171 -117 -207 11 -23 11 -23 37 17 29 47 87 99 146 132 23 13 41 22
41 19 0 -2 -28 -26 -63 -54 -102 -82 -164 -188 -147 -253 6 -24 7 -23 19 12
25 76 112 189 185 241 17 12 3 -6 -31 -40 -75 -75 -143 -204 -146 -276 -2 -60
10 -69 72 -50 71 21 168 32 225 25 50 -6 48 -6 -49 -17 -157 -19 -236 -47
-207 -76 6 -7 12 -23 12 -36 0 -13 2 -23 4 -23 2 0 35 12 72 27 64 26 79 28
209 27 77 -1 154 -6 170 -11 22 -8 -11 -10 -130 -9 -131 1 -171 -2 -222 -18
l-63 -19 0 -43 c0 -23 -3 -50 -7 -60 -5 -15 -2 -16 32 -10 21 4 84 26 139 48
131 52 236 78 305 77 31 -1 45 -4 31 -6 -84 -14 -209 -52 -328 -99 -96 -38
-157 -57 -202 -61 l-65 -5 0 -94 0 -93 25 24 c32 31 77 48 97 37 12 -7 9 -10
-14 -15 -38 -7 -85 -46 -112 -92 l-20 -34 41 29 c46 34 98 47 125 31 15 -9 12
-10 -18 -11 -98 -1 -218 -149 -238 -295 -12 -85 1 -172 38 -247 30 -60 20 -70
-15 -15 -30 47 -43 91 -51 171 -3 39 -8 66 -9 61 -2 -6 -10 -36 -19 -68 -9
-32 -30 -74 -46 -92 -29 -33 -30 -35 -23 -111 5 -54 4 -75 -4 -70 -16 10 -24
-44 -12 -84 5 -19 10 -62 10 -96 0 -46 6 -73 26 -110 l26 -49 -26 24 c-14 13
-31 42 -39 64 l-13 40 -19 -39 c-16 -31 -20 -64 -21 -164 -2 -180 -1 -176 -34
-214 -66 -75 -90 -200 -90 -476 l0 -208 25 -6 c13 -3 30 -16 36 -29 11 -19 10
-21 -3 -9 -19 15 -78 33 -78 24 0 -14 -46 -36 -110 -52 -61 -15 -65 -18 -62
-43 2 -14 -7 -44 -20 -66 l-23 -41 21 -37 c12 -20 28 -39 35 -42 9 -3 7 2 -4
13 -21 22 -22 79 -1 100 8 9 18 16 22 16 3 0 1 -5 -6 -12 -30 -30 -2 -108 39
-108 59 0 80 82 33 125 -26 24 -26 25 -5 25 30 0 71 -43 71 -75 0 -14 -10 -39
-21 -55 -23 -30 -20 -60 5 -60 8 0 30 19 50 43 25 29 36 37 36 25 0 -23 -8
-23 227 8 509 65 537 72 178 39 -88 -8 -186 -15 -217 -15 -54 0 -58 2 -58 23
0 13 10 33 23 44 19 17 57 24 262 47 132 14 301 31 375 38 74 7 127 14 117 16
-10 2 -100 -3 -200 -12 -100 -9 -279 -23 -397 -31 -118 -9 -223 -18 -232 -21
-10 -3 -18 -14 -18 -24 0 -10 -12 -32 -26 -47 l-26 -28 16 27 c8 15 19 46 22
70 4 24 13 55 21 70 7 15 20 63 27 105 14 80 47 179 111 338 43 104 54 180 32
210 -15 20 -16 20 -41 -4 -25 -24 -26 -24 -26 -3 0 11 4 32 10 47 9 23 14 25
44 19 32 -5 36 -3 60 33 33 50 51 120 42 164 -3 20 -25 60 -47 90 -53 70 -76
116 -83 164 l-7 40 18 -42 c10 -23 27 -54 38 -68 l20 -27 1 53 c2 82 20 132
66 184 54 61 124 95 197 95 60 0 126 -26 157 -63 19 -22 19 -22 -1 -6 -27 22
-111 49 -150 49 -128 0 -245 -122 -245 -256 0 -49 31 -155 59 -200 20 -33 95
-74 136 -74 31 0 94 31 116 56 80 91 82 236 6 349 l-21 30 26 -23 c45 -41 68
-102 68 -183 0 -96 -12 -136 -55 -186 -43 -50 -108 -78 -160 -69 -46 9 -47
-10 0 -30 66 -27 143 -11 228 48 l32 22 -23 -26 c-13 -15 -48 -37 -78 -50 -29
-13 -54 -26 -54 -29 0 -3 9 -14 20 -24 18 -16 21 -16 44 -2 13 9 27 25 31 36
3 10 18 24 34 31 16 6 46 36 67 66 29 43 38 68 42 110 2 30 8 54 12 54 4 0 10
11 14 23 4 17 17 27 48 36 35 11 40 15 27 25 -36 27 -66 54 -89 81 l-25 30 30
-26 c47 -39 94 -72 164 -113 l63 -37 -30 38 c-30 39 -62 96 -62 110 1 4 9 -8
20 -28 19 -35 96 -119 110 -119 4 0 1 19 -7 43 -27 75 5 292 48 331 9 8 10 6
4 -9 -37 -93 -53 -295 -27 -341 17 -32 107 -67 156 -61 37 5 39 4 22 -9 -11
-8 -35 -14 -53 -14 -23 0 -33 -5 -33 -15 0 -31 31 -76 69 -100 27 -16 41 -34
46 -55 4 -19 23 -44 52 -67 54 -45 82 -100 83 -164 0 -90 70 -261 137 -334 19
-20 32 -39 30 -41 -4 -5 -63 59 -85 92 -22 34 -3 -43 31 -126 27 -65 31 -88
32 -170 2 -130 0 -123 35 -105 54 28 45 15 -18 -26 l-62 -41 0 -62 c0 -62 0
-63 41 -90 50 -32 60 -28 24 10 -27 29 -28 66 -3 89 8 7 9 6 4 -3 -5 -7 -5
-24 -2 -37 21 -83 126 -69 126 17 0 37 -38 62 -85 56 -44 -5 -45 7 -2 21 55
19 102 -9 113 -64 7 -38 -7 -71 -44 -102 l-27 -23 43 0 c35 0 52 7 83 33 33
29 63 40 214 78 97 24 171 45 165 47 -5 2 -60 -6 -122 -17 -62 -12 -125 -23
-140 -26 -36 -6 -42 7 -23 45 21 40 31 44 215 84 85 19 146 35 135 35 -47 2
-339 -49 -351 -61 -7 -7 -20 -31 -29 -53 l-15 -40 6 35 c14 76 12 81 -40 109
-83 44 -92 68 -88 252 4 198 -10 313 -49 400 -16 37 -29 77 -29 89 0 12 -13
37 -29 55 -32 37 -82 184 -106 310 -18 95 -62 189 -115 240 l-38 37 -12 -58
c-11 -57 -44 -144 -53 -144 -3 0 2 21 10 48 8 26 15 81 16 124 2 63 -1 81 -19
105 -28 37 -54 89 -54 105 0 8 5 6 11 -5 13 -22 29 -13 29 18 0 44 -10 55 -49
55 -29 0 -48 -9 -81 -37 -30 -26 -40 -31 -31 -15 6 11 27 33 46 48 27 20 43
25 73 22 l38 -3 -18 48 c-13 34 -18 75 -18 151 0 119 -6 140 -57 205 -75 95
-171 153 -286 170 l-62 10 75 -3 c63 -2 87 -9 153 -41 65 -32 80 -36 88 -24
17 28 9 59 -27 95 -73 72 -149 84 -279 41 -100 -32 -238 -67 -262 -66 -19 0
76 38 247 96 138 48 214 51 282 10 75 -44 92 -76 96 -179 2 -49 7 -88 11 -88
9 0 41 100 41 129 0 35 -17 59 -114 166 -53 58 -76 89 -56 74 57 -42 64 -44
51 -21 -6 11 -11 32 -11 46 0 24 -4 26 -42 27 -33 0 -38 2 -23 9 11 5 37 9 59
9 36 1 38 3 33 28 -3 16 1 32 9 40 20 20 18 37 -3 28 -10 -4 -53 -11 -96 -16
-88 -10 -153 -2 -242 31 -33 13 -82 29 -110 36 l-50 14 50 -6 c28 -3 81 -14
120 -25 68 -18 195 -25 242 -13 20 6 17 10 -35 49 -31 23 -70 57 -87 75 -24
25 -13 20 47 -23 81 -58 159 -94 177 -82 25 15 7 34 -61 68 -77 38 -161 104
-179 140 -9 18 -7 17 15 -5 55 -58 196 -138 242 -138 15 0 24 8 28 25 10 39
-3 75 -27 75 -25 0 -93 39 -167 96 -80 61 -95 83 -26 39 57 -36 139 -77 182
-89 41 -12 54 16 54 114 l0 89 -53 -6 c-65 -7 -164 17 -227 55 -25 15 -65 35
-90 44 l-45 16 41 1 c27 1 65 -10 107 -29 152 -71 298 -60 272 20 -8 26 -34
39 -120 62 -91 24 -199 32 -252 20 -24 -5 -41 -6 -38 -2 3 5 31 14 62 21 48
11 75 10 181 -5 93 -13 127 -15 136 -6 26 26 -7 417 -40 468 -8 13 -29 32 -47
43 l-32 20 30 -6 c30 -5 30 -5 30 37 0 24 -5 46 -12 51 -6 4 -12 31 -12 61 0
29 -7 71 -16 92 -29 70 -35 124 -19 189 27 115 14 211 -87 651 -19 85 -20 93
-5 129 29 69 16 117 -37 130 -15 4 -24 11 -22 16 8 11 55 -8 81 -32 l22 -20
10 31 c7 18 25 38 44 48 85 45 111 106 65 150 -39 37 -101 38 -180 2z m-850
-3917 c-3 -10 -5 -2 -5 17 0 19 2 27 5 18 2 -10 2 -26 0 -35z"/>
<path d="M2068 793 c12 -2 32 -2 45 0 12 2 2 4 -23 4 -25 0 -35 -2 -22 -4z"/>
<path d="M3468 733 c7 -3 16 -2 19 1 4 3 -2 6 -13 5 -11 0 -14 -3 -6 -6z"/>
<path d="M3418 723 c7 -3 16 -2 19 1 4 3 -2 6 -13 5 -11 0 -14 -3 -6 -6z"/>
<path d="M1918 673 c7 -3 16 -2 19 1 4 3 -2 6 -13 5 -11 0 -14 -3 -6 -6z"/>
<path d="M1823 663 c9 -2 23 -2 30 0 6 3 -1 5 -18 5 -16 0 -22 -2 -12 -5z"/>
<path d="M3368 613 c7 -3 16 -2 19 1 4 3 -2 6 -13 5 -11 0 -14 -3 -6 -6z"/>
<path d="M3328 603 c7 -3 16 -2 19 1 4 3 -2 6 -13 5 -11 0 -14 -3 -6 -6z"/>
</g>
</svg>
