<?xml version="1.0" standalone="no"?>
<!DOCTYPE svg PUBLIC "-//W3C//DTD SVG 20010904//EN"
 "http://www.w3.org/TR/2001/REC-SVG-20010904/DTD/svg10.dtd">
<svg version="1.0" xmlns="http://www.w3.org/2000/svg"
 width="360.000000pt" height="427.000000pt" viewBox="0 0 360.000000 427.000000"
 preserveAspectRatio="xMidYMid meet">

<g transform="translate(0.000000,427.000000) scale(0.100000,-0.100000)"
fill="#000000" stroke="none">
<path d="M1131 4141 c-1 -9 -10 -12 -30 -9 -17 2 -28 1 -26 -2 2 -4 -20 -18
-50 -32 -30 -14 -52 -20 -48 -14 4 6 -1 4 -11 -4 -12 -9 -14 -16 -7 -18 9 -3
9 -7 0 -18 -6 -8 -15 -11 -20 -8 -5 3 -6 -3 -2 -12 5 -13 3 -15 -7 -9 -8 5
-11 4 -7 -3 9 -14 -3 -43 -14 -36 -5 3 -6 -1 -3 -9 3 -8 -2 -21 -10 -29 -8 -9
-12 -24 -9 -37 3 -11 1 -21 -4 -21 -6 0 -8 -11 -6 -24 3 -13 0 -27 -6 -30 -16
-10 -13 -65 4 -82 17 -17 21 -39 5 -29 -6 3 -7 -1 -4 -9 3 -9 10 -14 14 -11 4
3 11 -2 14 -11 4 -10 2 -13 -7 -8 -6 3 2 -6 18 -21 17 -14 23 -23 15 -19 -13
7 -13 5 -2 -8 8 -9 20 -14 28 -11 12 4 18 -6 16 -27 0 -3 7 -6 17 -7 16 -1 58
-26 119 -70 12 -9 25 -26 28 -39 3 -12 16 -32 29 -44 23 -22 25 -22 50 -6 31
20 34 3 3 -18 -12 -9 -17 -16 -10 -16 6 0 12 -7 12 -15 0 -8 5 -15 10 -15 6 0
10 -6 10 -14 0 -7 18 -34 41 -60 22 -25 37 -46 32 -46 -5 0 -15 6 -22 13 -11
10 -13 3 -9 -40 3 -31 1 -53 -5 -53 -5 0 -4 -7 3 -15 6 -8 8 -20 4 -26 -5 -8
-3 -9 6 -4 10 6 12 3 8 -13 -4 -12 -2 -20 2 -17 5 3 11 -14 15 -37 10 -56 14
-63 31 -41 18 24 17 10 -2 -35 -29 -68 -15 -365 21 -454 4 -11 3 -18 -4 -18
-7 0 -11 -25 -11 -70 0 -43 -4 -70 -11 -70 -5 0 -8 -4 -5 -9 8 -12 -19 -33
-29 -23 -5 4 -5 2 -2 -4 4 -7 -14 -29 -40 -50 l-48 -39 45 -6 c43 -6 43 -6
-16 -7 -34 -1 -78 -9 -98 -17 -20 -9 -73 -18 -119 -21 -45 -3 -105 -6 -133 -8
-61 -4 -106 3 -98 15 8 14 -9 11 -52 -10 -26 -12 -63 -19 -112 -20 -180 -2
-296 -83 -327 -228 -3 -18 -11 -33 -17 -33 -14 0 19 -37 57 -63 28 -19 29 -19
14 -1 -15 18 -15 21 1 46 9 16 19 25 23 22 3 -3 3 3 0 15 -3 12 -1 21 6 21 6
0 8 7 4 17 -4 11 -3 14 5 9 7 -4 10 -2 7 6 -3 8 7 25 22 38 l28 25 -20 -25
-20 -25 23 19 c12 11 22 26 22 34 0 8 6 12 14 9 8 -3 26 3 41 15 15 11 34 18
45 15 11 -3 18 -1 15 3 -3 5 18 13 45 19 63 14 80 14 80 1 0 -14 33 -13 48 2
15 15 105 19 114 4 5 -7 16 -5 38 7 28 17 49 18 208 14 97 -3 179 -6 182 -7 3
-1 -3 -5 -13 -8 -16 -7 -16 -9 -2 -27 9 -11 14 -14 10 -7 -7 13 7 17 19 5 4
-4 18 -9 31 -10 19 -3 28 2 35 22 14 36 13 38 -10 32 -28 -7 -25 2 3 12 19 7
29 26 46 83 13 40 36 114 52 163 30 94 59 209 59 235 0 9 -10 4 -25 -15 -24
-28 -24 -28 -16 -5 5 14 24 53 41 88 30 58 32 68 27 132 -3 38 -11 79 -18 92
-11 22 -11 22 6 8 17 -14 18 -11 11 85 -4 55 -6 114 -6 130 0 19 -7 34 -19 42
-23 15 -26 11 -35 -40 -9 -47 -26 -87 -38 -87 -5 0 -4 8 1 19 6 10 13 48 17
84 6 62 5 68 -24 111 -40 59 -31 59 20 1 22 -25 53 -52 69 -60 35 -19 112 -19
164 0 48 18 48 18 39 4 -3 -6 -25 -19 -47 -28 l-40 -17 31 -23 c18 -12 53 -50
78 -84 26 -34 68 -83 93 -109 l45 -48 81 0 c98 0 158 17 290 81 87 42 165 94
154 103 -2 1 -47 23 -99 49 -88 42 -142 83 -183 141 -14 19 -15 18 -53 -12
-95 -76 -222 -98 -265 -45 -13 15 -12 15 8 5 55 -30 154 -6 241 57 l43 32 -20
28 c-12 16 -39 36 -62 45 -52 21 -45 31 11 16 32 -9 48 -21 73 -57 76 -110
159 -177 263 -213 93 -32 96 -38 113 -181 21 -175 59 -260 99 -226 13 10 14 9
4 -10 -7 -12 -16 -23 -22 -25 -6 -2 -6 -26 0 -68 11 -74 11 -193 1 -230 -4
-13 -27 -40 -51 -58 -60 -45 -63 -62 -12 -55 22 3 42 1 45 -4 4 -6 -99 -15
-271 -22 -334 -15 -449 -26 -522 -53 -108 -41 -159 -102 -185 -224 -17 -81
-20 -444 -4 -444 6 0 25 -11 43 -25 l33 -25 6 203 c9 281 24 339 106 394 44
30 87 41 201 53 186 20 620 42 620 32 0 -3 -8 -14 -17 -24 -16 -18 -16 -18 2
-12 11 5 16 4 12 -2 -4 -6 6 -9 24 -6 16 2 29 0 29 -5 0 -5 9 -9 20 -10 11 -1
20 3 20 9 0 5 8 7 17 4 10 -4 14 -4 10 0 -6 6 50 48 63 46 3 0 12 6 21 14 21
19 89 31 89 15 0 -15 50 -13 80 4 29 17 76 19 85 5 8 -13 72 -13 81 1 3 6 16
8 27 5 13 -3 29 2 41 12 11 9 16 12 13 6 -4 -7 0 -14 8 -17 8 -4 12 -1 9 6 -3
8 12 12 48 12 43 0 53 3 56 18 9 46 -69 71 -124 41 -30 -16 -42 -17 -115 -6
-68 10 -86 9 -116 -3 -41 -17 -89 -20 -98 -5 -3 6 -17 10 -31 10 -26 0 -58 23
-47 34 4 3 2 6 -4 6 -6 0 -13 9 -16 19 -3 13 -20 24 -48 31 -89 25 -97 30 -44
27 28 -2 58 -7 68 -12 17 -7 18 -1 11 96 -4 57 -10 109 -14 114 -13 18 -21 66
-30 193 -5 70 -13 138 -16 152 -4 14 -3 22 1 17 5 -4 15 -33 22 -65 l13 -57
-6 85 c-4 47 -7 99 -8 115 0 17 -4 32 -7 35 -14 11 -58 108 -52 114 4 3 -1 6
-10 6 -9 0 -19 5 -23 12 -5 7 -2 9 7 3 8 -4 1 4 -15 17 -17 14 -26 30 -22 36
4 7 1 12 -9 12 -11 0 -15 5 -11 15 3 8 0 14 -7 12 -7 -1 -11 6 -11 15 1 10 -1
16 -5 14 -4 -3 -13 4 -20 16 -8 13 -9 18 -1 13 8 -5 7 0 -1 13 -7 12 -17 18
-21 16 -4 -3 -12 6 -17 19 -6 14 -15 28 -21 32 -5 3 -7 11 -4 17 4 6 2 8 -3 5
-6 -4 -21 9 -34 28 -13 18 -33 38 -45 44 -13 5 -28 22 -36 37 -7 15 -17 27
-23 28 -11 1 -55 44 -55 55 0 4 -10 18 -22 31 -13 14 -22 26 -20 27 10 12 -6
38 -50 82 -28 28 -48 51 -45 51 4 0 -1 8 -10 19 -10 10 -22 18 -28 17 -5 -1
-9 5 -8 11 2 7 -2 12 -8 10 -6 -1 -14 4 -17 12 -3 10 0 12 12 8 23 -9 20 -2
-9 17 -23 15 -24 15 -18 -1 6 -16 5 -16 -10 -4 -9 7 -15 16 -13 20 5 8 -71 8
-79 -1 -3 -3 3 -21 14 -39 34 -56 24 -54 -30 5 -28 31 -55 54 -59 51 -5 -3
-11 -1 -15 5 -4 6 -10 8 -15 5 -5 -3 -11 -1 -15 5 -8 13 -52 13 -60 0 -4 -6
-16 -8 -28 -5 -16 5 -18 4 -8 -3 11 -8 9 -11 -8 -17 -11 -3 -25 -3 -31 0 -5 3
-10 2 -10 -3 0 -5 -6 -9 -13 -9 -6 0 -40 -12 -73 -27 -34 -15 -72 -26 -85 -23
-23 4 -22 5 9 16 17 7 32 17 32 22 0 5 -10 5 -23 0 -15 -6 -31 -4 -47 5 -14 7
-33 13 -43 14 -16 0 -18 -5 -12 -42 8 -51 -6 -42 -24 13 -7 20 -20 44 -31 54
-11 10 -16 24 -13 33 4 10 2 13 -5 8 -7 -4 -13 -2 -13 3 -1 6 -2 16 -3 22 0 6
-21 28 -46 48 -25 20 -39 28 -31 19 7 -10 9 -18 3 -18 -14 0 -33 26 -25 34 4
4 0 4 -10 0 -10 -3 -17 -1 -17 6 0 6 -5 8 -11 4 -6 -3 -15 -1 -19 7 -7 10 -12
10 -23 0 -12 -9 -16 -9 -20 1 -4 10 -6 10 -6 -1z m184 -81 c10 -11 16 -20 13
-20 -3 0 -13 9 -23 20 -10 11 -16 20 -13 20 3 0 13 -9 23 -20z m134 -236 c12
-15 21 -40 20 -58 l-1 -31 -10 37 c-5 20 -19 45 -30 55 -19 17 -20 17 -39 -6
-21 -25 -25 -21 -9 10 15 27 45 24 69 -7z m690 -118 c6 -7 18 -33 26 -57 l15
-44 -20 25 c-11 14 -20 28 -20 32 0 3 -23 23 -50 43 -28 20 -55 45 -60 55 -8
14 1 12 44 -11 30 -16 59 -35 65 -43z m-398 5 c58 -26 142 -35 198 -23 41 10
43 9 27 -6 -13 -13 -35 -17 -99 -17 -93 1 -141 19 -192 77 -22 24 -23 27 -5
11 14 -12 46 -31 71 -42z m-271 -73 c0 -54 -46 -170 -87 -217 -34 -40 -74 -54
-88 -31 -4 6 6 10 23 10 17 0 37 9 49 23 49 53 99 195 88 250 -5 24 -4 28 4
17 6 -8 11 -32 11 -52z m-174 -223 c-11 -8 -22 -12 -25 -9 -6 6 19 24 34 24 6
-1 1 -7 -9 -15z"/>
<path d="M1958 3973 c7 -3 16 -2 19 1 4 3 -2 6 -13 5 -11 0 -14 -3 -6 -6z"/>
<path d="M2419 3043 c-8 -9 -83 -50 -167 -91 -145 -70 -158 -75 -237 -79 -104
-7 -121 -3 -177 46 l-45 40 -13 -24 c-7 -14 -11 -26 -9 -28 2 -1 21 -17 42
-35 42 -36 38 -42 -8 -12 -61 41 -111 14 -153 -81 l-20 -47 62 5 c46 4 71 1
94 -11 44 -23 40 -26 -10 -9 -35 12 -53 13 -95 3 -68 -15 -77 -30 -19 -30 42
0 103 -16 95 -25 -2 -2 -22 1 -44 7 -43 11 -125 -4 -125 -23 0 -5 -11 -27 -25
-47 -33 -48 -32 -56 7 -36 36 19 147 22 175 5 14 -9 3 -10 -42 -5 -72 7 -133
-7 -163 -38 -22 -25 -62 -132 -138 -372 -36 -117 -44 -153 -36 -165 24 -33 43
-73 33 -67 -7 4 -8 1 -5 -8 3 -9 9 -16 13 -16 3 0 7 -12 8 -27 0 -15 6 -29 12
-31 6 -2 9 -8 5 -13 -3 -5 0 -9 6 -9 7 0 10 -7 6 -15 -3 -8 -1 -15 4 -15 6 0
9 -3 9 -7 -4 -25 2 -43 13 -37 8 5 9 2 5 -9 -3 -9 -2 -19 4 -22 5 -4 7 -11 4
-16 -4 -5 -2 -9 2 -9 5 0 17 -16 27 -35 29 -54 36 -28 36 135 0 155 14 236 51
299 11 18 17 36 15 39 -3 3 -37 5 -75 6 -38 1 -66 5 -64 10 3 5 40 6 81 3 71
-5 78 -4 116 22 23 16 59 34 81 42 45 15 75 36 75 54 0 7 14 31 31 54 17 24
39 62 48 85 10 23 26 47 35 55 9 7 16 25 16 40 1 14 7 37 15 51 14 24 14 23 9
-21 l-6 -46 78 5 c64 3 90 0 137 -18 32 -12 56 -24 53 -27 -2 -3 -30 4 -61 16
-84 32 -158 24 -232 -24 l-27 -18 45 -13 c25 -8 57 -27 74 -45 31 -33 25 -32
-34 8 -19 13 -42 23 -52 23 -17 0 -99 -91 -99 -110 0 -5 -3 -16 -6 -25 -6 -15
1 -16 62 -10 38 3 145 10 238 15 161 8 171 10 188 32 25 33 22 41 -9 21 -19
-11 -12 1 23 38 61 64 158 189 151 195 -2 2 -21 -7 -41 -21 -38 -26 -39 -18
-3 22 11 12 32 25 48 28 27 6 29 10 29 57 0 35 -7 62 -25 92 -23 39 -36 104
-60 289 -7 50 -14 57 -36 30z m-441 -437 c27 -9 29 -26 2 -26 -27 0 -81 50
-109 101 l-23 44 53 -56 c30 -31 64 -60 77 -63z m310 74 c28 -17 52 -32 52
-35 0 -2 -24 7 -52 20 -69 32 -97 31 -167 -5 -66 -34 -121 -53 -121 -40 0 4 6
10 13 13 6 3 48 22 92 41 44 20 91 36 105 36 14 0 49 -14 78 -30z m-134 -110
c8 -8 4 -9 -17 -1 -46 18 -65 13 -109 -26 -28 -26 -38 -31 -30 -16 23 42 64
65 106 60 21 -3 44 -11 50 -17z"/>
<path d="M3253 2203 c9 -2 23 -2 30 0 6 3 -1 5 -18 5 -16 0 -22 -2 -12 -5z"/>
<path d="M2143 2133 c-57 -2 -103 -7 -103 -11 0 -5 16 -14 35 -21 19 -7 55
-28 80 -46 26 -20 51 -32 60 -29 8 3 13 10 10 14 -3 5 2 15 11 24 8 9 12 20 9
26 -3 5 -2 10 4 10 5 0 9 9 8 20 -1 11 -4 19 -7 18 -3 -1 -51 -4 -107 -5z"/>
<path d="M1043 2113 c15 -2 39 -2 55 0 15 2 2 4 -28 4 -30 0 -43 -2 -27 -4z"/>
<path d="M1898 2109 c-31 -4 -72 -15 -91 -22 l-34 -15 8 -53 c7 -53 17 -80 65
-188 17 -37 28 -86 35 -160 6 -58 22 -142 34 -186 38 -130 77 -350 72 -403
-20 -191 -48 -283 -124 -417 -46 -79 -66 -156 -45 -169 20 -12 170 -29 189
-21 10 5 21 7 26 7 4 -1 7 3 7 9 0 5 4 8 9 5 5 -3 12 1 15 10 4 9 13 14 21 10
8 -3 14 0 12 7 -1 7 7 12 17 12 11 0 22 7 24 15 3 8 12 21 21 28 9 8 10 11 4
7 -9 -4 -11 -1 -7 9 3 9 11 13 16 10 6 -4 8 -1 6 7 -3 8 3 25 13 38 10 13 16
27 13 32 -3 5 0 9 6 9 6 0 8 4 5 10 -3 5 -1 10 4 10 6 0 10 3 10 8 -3 19 2 33
11 27 6 -3 7 1 4 9 -4 9 0 18 9 22 9 3 13 12 11 19 -3 8 4 22 15 32 12 9 21
24 21 33 0 13 -1 13 -10 0 -9 -13 -10 -13 -10 0 0 8 -3 26 -7 39 -5 18 -3 22
7 16 9 -5 11 -4 6 4 -4 6 -11 9 -16 6 -11 -7 -22 24 -13 37 4 7 1 8 -7 3 -10
-6 -12 -4 -7 8 3 9 2 16 -3 14 -5 -1 -15 6 -22 16 -12 16 -13 14 -10 -21 5
-48 -16 -72 -64 -72 -27 0 -34 4 -34 19 0 11 -7 26 -15 35 -19 18 -19 27 -1
20 8 -3 20 -19 26 -35 13 -30 40 -38 58 -16 6 7 12 33 14 57 2 31 7 44 16 42
8 -1 10 2 7 8 -5 8 -14 6 -31 -4 -31 -21 -41 -20 -21 2 12 13 14 27 7 62 -4
25 -5 47 0 50 13 8 23 137 11 145 -7 4 -5 14 5 30 10 16 14 34 10 50 -4 14 -1
35 5 46 10 19 8 20 -10 14 l-21 -6 21 35 c11 19 18 40 14 46 -3 5 -1 10 4 10
6 0 11 5 11 11 0 5 -4 7 -10 4 -5 -3 -10 -2 -10 4 0 5 6 12 13 14 10 4 10 6 0
6 -9 1 -13 19 -13 57 0 34 4 53 10 49 6 -3 10 -1 10 4 0 6 -5 11 -11 11 -7 0
-9 10 -5 28 5 21 4 24 -4 12 -9 -12 -11 -10 -8 11 3 14 -2 31 -9 38 -8 7 -12
18 -10 24 2 6 -5 19 -15 29 -10 10 -16 23 -13 28 4 6 1 10 -5 10 -6 0 -8 5 -5
10 3 6 1 10 -4 10 -6 0 -10 3 -9 8 2 4 -3 22 -11 40 -13 32 -13 41 11 116 5
14 -114 76 -142 75 -14 -1 -51 -5 -82 -10z"/>
<path d="M1722 2025 c-42 -54 -47 -94 -47 -406 0 -275 1 -298 20 -337 11 -23
26 -42 33 -42 11 0 16 -15 15 -47 -1 -7 3 -13 8 -13 13 0 51 -79 44 -90 -3 -6
-1 -10 5 -10 6 0 9 -3 7 -7 -3 -5 -1 -19 4 -32 8 -20 15 -23 49 -19 22 2 40 0
40 -4 0 -7 -68 -24 -82 -20 -5 1 -8 -5 -8 -13 0 -9 6 -12 17 -8 13 5 15 2 10
-11 -4 -10 -7 -22 -7 -27 0 -6 -3 -8 -7 -6 -5 3 -9 -24 -10 -59 -1 -35 3 -64
8 -64 13 0 11 -47 -5 -107 -8 -29 -12 -62 -9 -73 3 -12 0 -20 -6 -20 -7 0 -9
-5 -5 -11 3 -6 17 7 31 33 65 111 94 182 109 260 9 46 19 103 24 128 16 82 10
144 -25 284 -19 77 -37 142 -40 145 -3 2 -10 0 -15 -5 -6 -6 -4 -29 4 -62 16
-61 6 -62 -14 -2 -10 31 -23 46 -50 60 -20 10 -43 26 -51 36 -13 16 -12 16 17
-1 36 -21 80 -15 88 13 3 9 2 51 -3 93 -10 87 -39 158 -106 257 -25 38 -45 74
-45 80 0 7 9 30 20 52 14 27 17 46 12 61 -8 22 -9 22 -30 -6z"/>
<path d="M2127 2003 c-8 -46 -3 -53 36 -52 26 0 28 2 12 8 -19 8 -19 8 3 15
l24 8 -28 29 c-15 16 -31 29 -35 29 -3 0 -9 -16 -12 -37z"/>
<path d="M1535 1571 c-3 -5 -1 -12 5 -16 5 -3 10 1 10 9 0 18 -6 21 -15 7z"/>
<path d="M1785 570 c3 -5 8 -10 11 -10 2 0 4 5 4 10 0 6 -5 10 -11 10 -5 0 -7
-4 -4 -10z"/>
<path d="M1790 496 c0 -2 8 -10 18 -17 15 -13 16 -12 3 4 -13 16 -21 21 -21
13z"/>
</g>
</svg>
